<!--Copyright 2000-2024 JetBrains s.r.o. and contributors. Use of this source code is governed by the Apache 2.0 license.--><svg width="16" height="16" viewBox="0 0 16 16" fill="none" xmlns="http://www.w3.org/2000/svg"><defs><linearGradient id="a" x1="32.1" y1="32.565" x2="5.447" y2="5.912" gradientUnits="userSpaceOnUse"><stop offset=".172" stop-color="#ff29ff"/><stop offset="1" stop-color="#00a0ff"/></linearGradient></defs><path d="M11.32 16v-.857l2.382-2.375q.354-.361.587-.641t.35-.537q.12-.26.119-.55 0-.333-.155-.573a1 1 0 0 0-.419-.371 1.34 1.34 0 0 0-.6-.132q-.351 0-.614.145a1 1 0 0 0-.409.405 1.3 1.3 0 0 0-.141.624h-1.127q0-.647.297-1.13t.816-.745a2.6 2.6 0 0 1 1.194-.267q.682 0 1.198.26t.803.708q.29.45.29 1.022 0 .385-.145.76-.146.37-.513.826-.368.456-1.025 1.1l-1.248 1.282v.05H16V16z" fill="url(#a)"/><path fill-rule="evenodd" clip-rule="evenodd" d="M8.114 5.416h3.2v4.097a2.4 2.4 0 0 1 .8-.619V7.016h2.8a.4.4 0 0 0 0-.8h-2.8v-.8a.8.8 0 0 0-.8-.8h-3.2a3.2 3.2 0 0 0-3.099 2.4h-1.7a.8.8 0 0 0-.8.8v1.6a.8.8 0 0 0 .8.8h1.7a3.2 3.2 0 0 0 3.1 2.4h2.4v-.8h-2.4a2.4 2.4 0 0 1-2.4-2.4v-1.6a2.4 2.4 0 0 1 2.4-2.4m-3.2 4v-1.6h-1.6v1.6z" fill="url(#a)" style="stroke-width:.8"/><circle cx="3.945" cy="2.673" r=".96" stroke="url(#a)" style="stroke-width:.64"/><path d="M3.945 4.913c-1.52 0-3.024-.995-3.5-2.24.476-1.244 1.98-2.24 3.5-2.24s3.025.996 3.5 2.24c-.475 1.245-1.979 2.24-3.5 2.24z" stroke="url(#a)" style="stroke-width:.64"/></svg>